HIERARCHY
ROOT pelvis
{
  OFFSET 0 100 0
  CHANNELS 6 Xposition Yposition Zposition Zrotation Xrotation Yrotation
  JOINT pelvis_right_femur
  {
    OFFSET -10.78128 -3.44521 -0.5502486
    CHANNELS 3 Zrotation Xrotation Yrotation
    JOINT right_femur_tibia
    {
      OFFSET -0.8047443 -44.0398 -0.1307829
      CHANNELS 3 Zrotation Xrotation Yrotation
      JOINT right_tibia_foot
      {
        OFFSET 3.006224 -47.83518 -5
        CHANNELS 3 Zrotation Xrotation Yrotation
        End Site
        {
          OFFSET 0 -5 15
        }
      }
    }
  }
  JOINT pelvis_left_femur
  {
    OFFSET 10.78128 -3.44521 -0.5502486
    CHANNELS 3 Zrotation Xrotation Yrotation
    JOINT left_femur_tibia
    {
      OFFSET 0.8047443 -44.0398 -0.1307829
      CHANNELS 3 Zrotation Xrotation Yrotation
      JOINT left_tibia_foot
      {
        OFFSET -4.370144 -48.10324 -4.275266
        CHANNELS 3 Zrotation Xrotation Yrotation
        End Site
        {
          OFFSET 0 -5 15
        }
      }
    }
  }
  JOINT pelvis_spine1
  {
    OFFSET 0 6.468898 -3.129235
    CHANNELS 3 Zrotation Xrotation Yrotation
    JOINT spine1
    {
      OFFSET 0 23.15396 4.99043
      CHANNELS 3 Zrotation Xrotation Yrotation
      JOINT spine2
      {
        OFFSET 0 20.79997 -5.064912
        CHANNELS 3 Zrotation Xrotation Yrotation
        JOINT neck
        {
          OFFSET 0 14.38658 9.616178
          CHANNELS 3 Zrotation Xrotation Yrotation
          End Site
          {
            OFFSET 0 20 0
          }
        }
      }
      JOINT right_manubrium
      {
        OFFSET -5.722621 16.35077 3.967754
        CHANNELS 3 Zrotation Xrotation Yrotation
        JOINT right_clavicle
        {
          OFFSET -13.16364 1.694482 -4.693211
          CHANNELS 3 Zrotation Xrotation Yrotation
          JOINT right_humerus
          {
            OFFSET -28.5034 -0.3100689 -2.792744
            CHANNELS 3 Zrotation Xrotation Yrotation
            JOINT right_radius
            {
              OFFSET -25.15693 0.02248979 -1.271978
              CHANNELS 3 Zrotation Xrotation Yrotation
              End Site
              {
                OFFSET -15 0 0
              }
            }
          }
        }
      }
      JOINT left_manubrium
      {
        OFFSET 5.722621 16.35077 3.967754
        CHANNELS 3 Zrotation Xrotation Yrotation
        JOINT left_clavicle
        {
          OFFSET 13.16364 1.694482 -4.693211
          CHANNELS 3 Zrotation Xrotation Yrotation
          JOINT left_humerus
          {
            OFFSET 29.39168 -1.063119 -2.237045
            CHANNELS 3 Zrotation Xrotation Yrotation
            JOINT left_radius
            {
              OFFSET 24.59957 -0.9528479 0.9047498
              CHANNELS 3 Zrotation Xrotation Yrotation
              End Site
              {
                OFFSET 15 -0 -0
              }
            }
          }
        }
      }
    }
  }
}
MOTION
Frames: 15
Frame Time: 0.0416666666667
0 103.5113 0 1.885327 0.145492 0.08038985 2.265013 -16.76796 11.65142 -0 43.11389 -0 -5.608046 -19.25402 -3.614615 -8.178253 9.435279 -24.91237 -0 5.63137 -0 15.51415 -13.11166 30.77627 -4.900098 -4.250803 5.56815 2.589882 10.00212 -7.520485 1.900072 21.74144 6.414606 3.005163 -24.30261 10.17838 8.241001 -19.60787 11.52614 83.62781 41.81933 -16.39612 -0 0 17.43898 -5.272222 8.994221 3.260037 5.67984 -18.18236 -0.320483 -91.1564 20.11133 19.19538 0 0 -12.99699 16.993 13.87569 -6.080368
0.4025988 103.0419 1.378792 1.583079 0.2483496 0.1570191 2.714607 -18.30922 10.45641 -0 40.86538 -0 -5.521398 -17.48036 -2.979606 -7.935609 9.37542 -23.98637 -0 5.154155 -0 14.77555 -13.86059 29.67316 -4.516052 -3.927157 5.421746 2.533796 10.13776 -7.55592 1.735347 21.5856 6.559734 3.194578 -24.38857 9.895037 7.87238 -19.74334 11.64342 83.90558 40.64848 -16.7055 -0 0 17.29199 -6.178239 8.974235 3.747694 6.06513 -18.73415 -0.7505454 -91.05902 19.96485 19.14256 0 0 -14.09133 16.75465 13.92651 -5.777123
0.797226 102.2356 3.187262 0.8350698 1.483533 0.1540865 4.58889 -22.93354 9.378392 -0 33.60431 -0 -4.638185 -16.08055 -2.129611 -7.436969 9.957094 -22.48813 -0 4.560126 -0 13.58233 -15.76784 28.0338 -3.798019 -3.370238 5.340792 2.75736 9.905932 -7.814812 1.573261 21.01548 6.607506 3.246424 -25.00151 9.620218 7.148953 -19.77931 11.60286 84.44571 39.31434 -17.71978 -0 0 17.17077 -5.852749 8.482623 3.754856 6.874518 -19.45686 -0.9397927 -91.0441 20.74164 19.03085 0 0 -17.25247 15.80034 13.5739 -4.558343
1.189828 101.1486 5.498646 0.4994715 1.96704 0.2074528 5.290751 -26.02225 7.725423 -0 28.517 -0 -4.612494 -13.19364 -1.339265 -7.161393 10.41056 -20.79091 -0 4.947925 -0 12.61822 -16.91193 26.24566 -3.387604 -2.96453 5.164522 2.782564 10.07208 -7.952393 1.390577 20.7159 6.739186 3.456416 -25.07977 9.242618 6.531336 -19.67527 11.66712 85.21745 38.0789 -18.66486 -0 0 16.33365 -6.870997 8.485312 4.215985 7.469894 -20.48256 -1.420533 -90.3039 20.26137 18.15805 0 0 -19.83788 15.78395 13.08767 -4.570737
1.572253 99.78076 8.49125 0.3108001 2.036203 0.3517229 5.465189 -28.81063 5.314383 -0 23.06592 -0 -5.083019 -9.053137 -0.515713 -6.93525 11.09452 -18.52574 -0 6.06278 -0 11.50569 -17.93493 23.97334 -3.035879 -2.586153 4.860203 2.723564 10.45351 -8.056575 1.177647 20.57426 6.878704 3.675987 -24.87549 8.750088 5.623091 -19.47772 11.76503 86.49246 36.22116 -19.89448 -0 0 14.72089 -8.848574 8.647396 5.060949 8.004426 -21.93371 -2.194261 -89.00774 19.14832 16.60985 0 0 -22.87488 16.01982 12.53069 -4.967627
1.936618 98.16554 12.21605 0.3237694 1.629791 0.5966193 5.081554 -30.62868 2.51636 -0 18.0358 -0 -5.932141 -4.656855 0.1920496 -6.816678 11.86469 -16.08144 -0 7.816347 -0 10.49973 -18.57808 21.66937 -2.791667 -2.349074 4.510514 2.583533 10.98524 -8.127278 0.9687969 20.61789 6.966409 3.853605 -24.36334 8.179885 4.533915 -19.25639 11.86977 88.02041 33.95964 -21.14957 -0 0 12.69692 -11.41745 8.871973 6.114354 8.38803 -23.56261 -3.137236 -87.43586 17.50312 14.65585 0 0 -25.8771 16.43825 11.98918 -5.710747
2.272155 96.35385 16.7168 0.4869117 0.7323207 0.9335124 4.323271 -31.37931 -0.5674982 -0 13.30967 -0 -7.101784 -0.2803549 0.7676287 -6.755562 12.732 -13.49791 -0 10.32585 -0 9.476438 -18.83798 19.35803 -2.574809 -2.266282 4.117289 2.34973 11.60903 -8.158278 0.7828146 20.86152 6.969785 3.961496 -23.54668 7.53906 3.192631 -19.02872 11.94195 89.78328 31.12739 -22.38213 -0 0 10.35615 -14.4659 9.074815 7.317566 8.609026 -25.31315 -4.248354 -85.77535 15.53209 12.45274 0 0 -28.79813 16.8389 11.61799 -6.548441
2.566074 94.45146 21.97083 0.7309485 -0.544124 1.322054 3.534648 -30.94081 -3.451168 -0 9.253869 -0 -8.431533 3.463946 1.123296 -6.705021 13.5862 -11.0437 -0 13.70848 -0 8.433278 -18.60897 17.27604 -2.320257 -2.366042 3.737497 2.030185 12.23096 -8.150198 0.6568914 21.26551 6.859427 3.98291 -22.50806 6.890327 1.693554 -18.82162 11.93774 91.60465 27.96479 -23.45259 -0 0 8.034468 -17.55755 9.205487 8.458415 8.644194 -26.96687 -5.40508 -84.30454 13.5803 10.34022 0 0 -31.33135 17.06509 11.5385 -7.238562
2.800025 92.60687 27.89566 0.9545731 -2.082643 1.685737 3.049191 -29.32689 -5.719147 -0 6.252866 -0 -9.790291 6.19634 1.189113 -6.581328 14.2711 -8.915369 -0 18.16939 -0 7.299784 -17.79551 15.55964 -1.939963 -2.638742 3.416836 1.629096 12.78607 -8.101902 0.6173376 21.77628 6.628636 3.923299 -21.34823 6.290257 0.1500088 -18.65282 11.83265 93.33294 24.70417 -24.26472 -0 0 6.04353 -20.35082 9.287693 9.369475 8.488975 -28.34075 -6.511384 -83.22865 11.99972 8.644005 0 0 -33.14468 17.00775 11.8789 -7.562173
2.949656 91.00623 34.33772 1.031508 -3.68495 1.914358 3.130505 -26.72984 -6.981471 -0 4.723249 -0 -11.021 7.625104 0.9123483 -6.297591 14.55256 -7.303269 -0 23.87119 -0 6.060667 -16.32947 14.33904 -1.366573 -3.03486 3.219222 1.182531 13.23329 -8.024736 0.6767586 22.29391 6.294932 3.79382 -20.24008 5.811727 -1.248871 -18.54894 11.63492 94.78564 21.73572 -24.75747 -0 0 4.721644 -22.45484 9.39415 9.894358 8.147487 -29.24452 -7.44196 -82.71074 11.12713 7.736775 0 0 -33.88615 16.61445 12.65502 -7.343696
2.988981 89.83633 41.08138 0.8571365 -5.156941 1.886219 3.832696 -23.43926 -7.083822 -0 4.891108 -0 -12.00443 7.687168 0.3159687 -5.794018 14.13482 -6.280328 -0 30.86745 -0 4.756373 -14.21838 13.65698 -0.5866076 -3.455769 3.20877 0.751065 13.59071 -7.934861 0.8187193 22.7065 5.901999 3.614237 -19.36582 5.505752 -2.301012 -18.54908 11.40317 95.79261 19.42787 -24.91422 -0 0 4.31016 -23.61988 9.617009 9.975612 7.628811 -29.56981 -8.114325 -82.85318 11.11839 7.936749 0 0 -33.28599 15.91476 13.74554 -6.529986
2.903904 89.23926 47.88238 0.4149877 -6.35624 1.516321 4.984159 -19.76358 -6.146888 -0 6.573986 -0 -12.67619 6.567187 -0.4847872 -5.083201 12.71855 -5.762751 -0 38.93149 -0 3.527501 -11.60167 13.45771 0.3146299 -3.769576 3.438184 0.4133895 13.94142 -7.845068 1.000036 22.91989 5.504712 3.403263 -18.86745 5.38411 -2.862329 -18.71404 11.24226 96.25157 18.01719 -24.75391 -0 0 4.859834 -23.81354 10.01171 9.685269 6.937061 -29.33972 -8.52486 -83.68222 11.83406 9.403473 0 0 -31.3112 15.01334 14.86312 -5.224739
2.706925 89.26138 54.51987 -0.1718599 -7.272633 0.8042567 6.242279 -15.90342 -4.552329 -0 9.073974 -0 -13.03714 4.661559 -1.317027 -4.248128 10.09454 -5.522598 -0 47.40446 -0 2.59534 -8.764252 13.5966 1.147738 -3.859052 3.927373 0.2277268 14.41032 -7.74822 1.172522 22.9013 5.136257 3.175368 -18.7653 5.397408 -2.937739 -19.12277 11.2663 96.19368 17.46217 -24.30038 -0 0 6.195499 -23.29595 10.57335 9.227598 6.083023 -28.73205 -8.775533 -85.09543 12.83572 12.01588 0 0 -28.26436 14.0576 15.65497 -3.673747
2.437191 89.81575 60.84313 -0.6783301 -8.028909 -0.1571577 7.229954 -11.91363 -2.798249 -0 11.34482 -0 -13.13017 2.446146 -2.033 -3.374869 6.256138 -5.301712 -0 55.07767 -0 2.186266 -6.09299 13.91351 1.684032 -3.690126 4.647842 0.1908026 15.0961 -7.613411 1.315906 22.68494 4.776907 2.931216 -18.93971 5.446138 -2.716991 -19.86141 11.53226 95.79518 17.43421 -23.55792 -0 0 8.023203 -22.54217 11.26273 8.879787 5.115143 -28.01378 -9.023651 -86.81725 13.5894 15.3635 0 0 -24.76375 13.15456 15.87339 -2.139172
2.141058 90.67381 66.78661 -0.9180866 -8.771191 -1.224752 7.715079 -7.772819 -1.275455 -0 12.45189 -0 -13.00551 0.30015 -2.573879 -2.462221 1.459379 -4.941819 -0 60.28444 -0 2.406243 -3.958249 14.32272 1.786817 -3.351382 5.516578 0.2279142 15.99151 -7.403964 1.448306 22.32625 4.360596 2.651249 -19.206 5.425545 -2.496902 -21.00522 11.98686 95.28062 17.4833 -22.49673 -0 0 10.15037 -22.02635 12.06614 8.893873 4.141206 -27.40195 -9.372704 -88.49382 13.77298 18.94145 0 0 -21.52196 12.29191 15.52906 -0.7362865
